#!OML:ASF F:\VICON\USERDATA\INSTALL\rory3\rory3.ASF
:FULLY-SPECIFIED
:DEGREES
108
root 1.6004714115433711 17.906794407426894 54.68819257801797 -3.431435760521803 -0.14115044166603632 -2.3434614521026553
lfemur 4.8994620393561625 -3.1168100729645003 -20.291975591287855
ltibia 40.778401272934936
lfoot -7.5004812076799166 -3.510935314033096
ltoes -10.700381806761234
rfemur -19.211977443049705 0.34214835112646313 26.871141577880422
rtibia 31.90626994283252
rfoot -12.636913319935747 -10.349231604486395
rtoes -1.5923999565097913
lowerback 10.005610991567819 -1.6499225885339097 -0.19589623965957026
upperback -0.34048461692960225 -1.9620173741681433 2.1858650870358094
thorax -5.96063214151785 -0.9742412483300168 3.499795833309822
lowerneck -16.91032146542644 -3.3267863108341316 -1.7204299513982937
upperneck 21.635060646483357 -4.421814965055596 1.2009673451213712
head 9.715265249379202 -2.068321211574233 0.1622603209974413
lclavicle -2.5561621492789244e-15 -2.7546500938447794e-15
lhumerus -28.814824374353652 0.829628457631963 81.78665039405561
lradius 24.154063708455134
lwrist 9.841117280762466
lhand -29.65178565664348 18.215307043841083
lfingers nan
lthumb -2.3380102181173905 49.03982920152551
rclavicle -2.6607093168259072e-15 -2.804348890220364e-15
rhumerus -32.8564926395667 -22.036481180346428 -75.8405352573457
rradius 33.50397459732985
rwrist 0.937010176991441
rhand -17.564950088692044 22.26871356736582
rfingers nan
rthumb 8.617738399313964 -7.6476565477826375
109
root 1.5844602555478844 17.898238479841496 54.730143837247084 -3.4801475144069007 -0.3816903557766755 -3.3178439721219593
lfemur 2.856834545223233 -2.5073887396373844 -18.343205348774358
ltibia 45.03990249620868
lfoot -8.052003771546842 -2.451175694121468
ltoes -10.991334591291158
rfemur -18.189261224241434 1.0126294401345202 27.97539842090241
rtibia 32.2587454925839
rfoot -13.519095119366773 -11.094817609850114
rtoes -1.0083647406236782
lowerback 10.056132131592983 -1.4130297864238723 0.5840406867306713
upperback -0.3111113721599475 -1.4487883958212415 2.3044689574765664
thorax -6.040312486217991 -0.7102690919985108 3.182157916179591
lowerneck -16.960471717180532 -3.380612385512173 -1.615712880664954
upperneck 21.476709710885896 -4.523036490374692 1.167838335891492
head 9.649262829145544 -2.1088651503875853 0.12108634286195388
lclavicle -2.550983534807073e-15 -2.7528276536607775e-15
lhumerus -29.11992644240852 1.3587643677503025 81.90718575356378
lradius 23.854506200298164
lwrist 10.166377011061854
lhand -29.696787703309752 18.32252213573429
lfingers nan
lthumb -2.453788035487131 48.97808692328173
rclavicle -2.662839459127941e-15 -2.808295084533175e-15
rhumerus -32.699194692645705 -21.998822846953622 -75.65936225618833
rradius 33.53000311134272
rwrist 1.0411990916335792
rhand -17.559117873850717 22.28895485024583
rfingers nan
rthumb 8.619279914955728 -7.622550351525041
110
root 1.5576140090600026 17.89062174366806 54.17354652759424 -3.4963353683172045 -0.5237982431705319 -4.3216254551810005
lfemur 0.3329783768317238 -1.8938903974062464 -16.3513415278733
ltibia 49.127631718747175
lfoot -8.854858394956926 -1.8976268661976303
ltoes -11.15374620751071
rfemur -16.77546579016157 1.511754221302931 29.001474511081632
rtibia 32.68124993230968
rfoot -14.636414305031884 -11.87501009748361
rtoes -0.812474418967152
lowerback 10.121793860471543 -1.1475768048248942 1.358845361052921
upperback -0.28228752278345837 -0.8990112913613504 2.410522789581821
thorax -6.122271527477034 -0.42487579751710836 2.7877279731984963
lowerneck -17.013318048689488 -3.4616131929596086 -1.5036505174447954
upperneck 21.30299155779185 -4.672008169973906 1.154180312612903
head 9.583640069265735 -2.165228921796832 0.07673638999310939
lclavicle -2.5452441639771124e-15 -2.7508540085549837e-15
lhumerus -29.412537549903995 1.7316439780138349 82.01922325989797
lradius 23.63609118016343
lwrist 10.51784741161091
lhand -29.903524286794195 18.08793905615796
lfingers nan
lthumb -2.6055859016353744 48.895736058095274
rclavicle -2.6630409033745204e-15 -2.8114624219316436e-15
rhumerus -32.477885009833166 -21.931807267492047 -75.50543964598226
rradius 33.49949818365384
rwrist 1.4359133372733042
rhand -17.53637627991755 22.38584160536762
rfingers nan
rthumb 8.631091472332853 -7.502817367350758
111
root 1.5128142312051391 17.880044042843295 52.465013258214235 -3.563678082027619 -0.6063607546247516 -5.4579782624419915
lfemur -2.7912197353351402 -1.3036701127267705 -14.308159060039335
ltibia 52.847906536311285
lfoot -8.799144835038222 -0.5325638780297419
ltoes -12.247879512844225
rfemur -14.920366558722959 1.8853175295080993 30.09194573914392
rtibia 32.95402137152789
rfoot -15.707619822306953 -12.599662307061209
rtoes -1.1155620833592068
lowerback 10.217554037114692 -0.8459169688255083 2.1890173299904783
upperback -0.2488670842063907 -0.2651303202192093 2.5156594852429137
thorax -6.187589889768769 -0.10525072037839825 2.2554294073559915
lowerneck -17.040643848259393 -3.5631244504971376 -1.4150014150206573
upperneck 21.141304487689617 -4.853651963126314 1.1631327213345883
head 9.527123850256594 -2.231595424621971 0.03646384396196223
lclavicle -2.537523993533221e-15 -2.7479936461332536e-15
lhumerus -29.68311730050715 1.9174354431086866 82.10596806494769
lradius 23.520889708197174
lwrist 10.756611137374744
lhand -29.889167460165574 18.28772187160541
lfingers nan
lthumb -2.717205765507205 48.869658504057966
rclavicle -2.661195531892438e-15 -2.8141807281747097e-15
rhumerus -32.236574532372586 -21.889811002362542 -75.36969897826519
rradius 33.42598895610574
rwrist 2.1131591291185967
rhand -17.526337633317404 22.48537219280482
rfingers nan
rthumb 8.631449283331412 -7.382196886554529
